<svg width="24" height="24" viewBox="0 0 24 24" fill="none" xmlns="http://www.w3.org/2000/svg">
<path d="M12.75 18H15.75V21H12.75V18Z" fill="#EEEEEE"/>
<path d="M18.0002 18H21.0002V21H18.0002V18Z" fill="#EEEEEE"/>
<path d="M12.75 12.75H15.75V15.75H12.75V12.75Z" fill="#EEEEEE"/>
<path d="M18.0002 12.75H21.0002V15.75H18.0002V12.75Z" fill="#EEEEEE"/>
<path d="M21 8.25H16.5V5.25C16.5 3.975 15.525 3 14.25 3H9.75C8.475 3 7.5 3.975 7.5 5.25V8.25H3C2.55 8.25 2.25 8.55 2.25 9V9.15L3.675 18.225C3.75 18.975 4.425 19.5 5.175 19.5H11.25V18H5.175L3.9 9.75H21V8.25ZM9 5.25C9 4.8 9.3 4.5 9.75 4.5H14.25C14.7 4.5 15 4.8 15 5.25V8.25H9V5.25Z" fill="#EEEEEE"/>
</svg>
